# Blender v3.1.2 OBJ File: 'dev-ship.blend'
# www.blender.org
mtllib dev-ship.mtl
o Cube
v -0.580802 0.839745 0.538536
v -0.580802 0.172862 0.538536
v 1.000000 0.662189 1.000000
v 1.000000 0.172862 1.000000
v -1.000000 0.662189 -1.000000
v -1.000000 0.172862 -1.000000
v -1.000000 0.662189 1.000000
v -1.000000 0.172862 1.000000
v -0.021577 0.172862 -0.010703
v -0.440774 0.172862 -1.549240
v -0.021577 0.839745 -0.010703
v 1.559226 0.662189 0.450760
v 1.559226 0.172862 0.450760
v -0.440774 0.662189 -1.549240
v -0.001803 0.452067 0.837256
v -0.099628 0.452067 0.935082
v 0.007740 0.450738 0.846799
v -0.090085 0.450738 0.944624
v 0.016915 0.446802 0.855974
v -0.080910 0.446802 0.953800
v 0.025372 0.440409 0.864431
v -0.072453 0.440409 0.962256
v 0.032784 0.431807 0.871843
v -0.065041 0.431807 0.969668
v 0.038867 0.421325 0.877926
v -0.058958 0.421325 0.975751
v 0.043387 0.409366 0.882446
v -0.054438 0.409366 0.980271
v 0.046170 0.396389 0.885229
v -0.051655 0.396389 0.983054
v 0.047110 0.382894 0.886169
v -0.050715 0.382894 0.983994
v 0.046170 0.369399 0.885229
v -0.051655 0.369399 0.983054
v 0.043387 0.356423 0.882446
v -0.054438 0.356423 0.980271
v 0.038867 0.344464 0.877926
v -0.058958 0.344464 0.975751
v 0.032784 0.333982 0.871843
v -0.065041 0.333982 0.969668
v 0.025372 0.325379 0.864431
v -0.072453 0.325379 0.962256
v 0.016915 0.318987 0.855974
v -0.080910 0.318987 0.953800
v 0.007740 0.315051 0.846799
v -0.090085 0.315051 0.944624
v -0.001803 0.313721 0.837256
v -0.099628 0.313721 0.935082
v -0.011345 0.315051 0.827714
v -0.109170 0.315051 0.925539
v -0.020521 0.318987 0.818538
v -0.118346 0.318987 0.916363
v -0.028977 0.325379 0.810082
v -0.126802 0.325379 0.907907
v -0.036389 0.333982 0.802670
v -0.134214 0.333982 0.900495
v -0.042472 0.344464 0.796587
v -0.140297 0.344464 0.894412
v -0.046992 0.356423 0.792067
v -0.144817 0.356423 0.889892
v -0.049775 0.369399 0.789284
v -0.147600 0.369399 0.887109
v -0.050715 0.382894 0.788344
v -0.148540 0.382894 0.886169
v -0.049775 0.396389 0.789284
v -0.147600 0.396389 0.887109
v -0.046992 0.409366 0.792067
v -0.144817 0.409366 0.889892
v -0.042472 0.421325 0.796587
v -0.140297 0.421325 0.894412
v -0.036389 0.431807 0.802670
v -0.134214 0.431807 0.900495
v -0.028977 0.440409 0.810082
v -0.126802 0.440409 0.907907
v -0.020521 0.446802 0.818538
v -0.118346 0.446802 0.916363
v -0.011345 0.450738 0.827714
v -0.109170 0.450738 0.925539
v -0.610191 0.450738 1.464729
v -0.619733 0.452067 1.455187
v -0.601015 0.446802 1.473905
v -0.592559 0.440409 1.482361
v -0.585147 0.431807 1.489773
v -0.579064 0.421325 1.495856
v -0.574544 0.409366 1.500376
v -0.571760 0.396389 1.503160
v -0.570820 0.382894 1.504099
v -0.571760 0.369399 1.503160
v -0.574544 0.356423 1.500376
v -0.579064 0.344464 1.495856
v -0.585147 0.333982 1.489773
v -0.592559 0.325379 1.482361
v -0.601015 0.318987 1.473905
v -0.610191 0.315051 1.464729
v -0.619733 0.313721 1.455187
v -0.629275 0.315051 1.445644
v -0.638451 0.318987 1.436469
v -0.646907 0.325379 1.428012
v -0.654319 0.333982 1.420600
v -0.660402 0.344464 1.414518
v -0.664922 0.356423 1.409997
v -0.667706 0.369399 1.407214
v -0.668646 0.382894 1.406274
v -0.667706 0.396389 1.407214
v -0.664922 0.409366 1.409997
v -0.660402 0.421325 1.414518
v -0.654319 0.431807 1.420600
v -0.646907 0.440409 1.428012
v -0.638451 0.446802 1.436469
v -0.629275 0.450738 1.445644
v -0.813461 0.452067 0.048095
v -0.911287 0.452067 0.145920
v -0.803919 0.450738 0.057637
v -0.901744 0.450738 0.155463
v -0.794743 0.446802 0.066813
v -0.892569 0.446802 0.164638
v -0.786287 0.440409 0.075269
v -0.884112 0.440409 0.173095
v -0.778875 0.431807 0.082681
v -0.876700 0.431807 0.180507
v -0.772792 0.421325 0.088764
v -0.870617 0.421325 0.186589
v -0.768272 0.409366 0.093284
v -0.866097 0.409366 0.191109
v -0.765489 0.396389 0.096068
v -0.863314 0.396389 0.193893
v -0.764549 0.382894 0.097008
v -0.862374 0.382894 0.194833
v -0.765489 0.369399 0.096068
v -0.863314 0.369399 0.193893
v -0.768272 0.356423 0.093284
v -0.866097 0.356423 0.191109
v -0.772792 0.344464 0.088764
v -0.870617 0.344464 0.186589
v -0.778875 0.333982 0.082681
v -0.876700 0.333982 0.180507
v -0.786287 0.325379 0.075269
v -0.884112 0.325379 0.173095
v -0.794743 0.318987 0.066813
v -0.892569 0.318987 0.164638
v -0.803919 0.315051 0.057637
v -0.901744 0.315051 0.155463
v -0.813461 0.313721 0.048095
v -0.911287 0.313721 0.145920
v -0.823004 0.315051 0.038553
v -0.920829 0.315051 0.136378
v -0.832179 0.318987 0.029377
v -0.930005 0.318987 0.127202
v -0.840636 0.325379 0.020921
v -0.938461 0.325379 0.118746
v -0.848048 0.333982 0.013508
v -0.945873 0.333982 0.111334
v -0.854131 0.344464 0.007426
v -0.951956 0.344464 0.105251
v -0.858651 0.356423 0.002906
v -0.956476 0.356423 0.100731
v -0.861434 0.369399 0.000122
v -0.959259 0.369399 0.097947
v -0.862374 0.382894 -0.000818
v -0.960199 0.382894 0.097008
v -0.861434 0.396389 0.000122
v -0.959259 0.396389 0.097947
v -0.858651 0.409366 0.002906
v -0.956476 0.409366 0.100731
v -0.854131 0.421325 0.007426
v -0.951956 0.421325 0.105251
v -0.848048 0.431807 0.013508
v -0.945873 0.431807 0.111334
v -0.840636 0.440409 0.020921
v -0.938461 0.440409 0.118746
v -0.832179 0.446802 0.029377
v -0.930005 0.446802 0.127202
v -0.823004 0.450738 0.038553
v -0.920829 0.450738 0.136378
v -1.421849 0.450738 0.675568
v -1.431392 0.452067 0.666025
v -1.412674 0.446802 0.684743
v -1.404217 0.440409 0.693200
v -1.396805 0.431807 0.700612
v -1.390723 0.421325 0.706695
v -1.386202 0.409366 0.711215
v -1.383419 0.396389 0.713998
v -1.382479 0.382894 0.714938
v -1.383419 0.369399 0.713998
v -1.386202 0.356423 0.711215
v -1.390723 0.344464 0.706695
v -1.396805 0.333982 0.700612
v -1.404217 0.325379 0.693200
v -1.412674 0.318987 0.684743
v -1.421849 0.315051 0.675568
v -1.431392 0.313721 0.666025
v -1.440934 0.315051 0.656483
v -1.450110 0.318987 0.647307
v -1.458566 0.325379 0.638851
v -1.465978 0.333982 0.631439
v -1.472061 0.344464 0.625356
v -1.476581 0.356423 0.620836
v -1.479365 0.369399 0.618053
v -1.480304 0.382894 0.617113
v -1.479365 0.396389 0.618053
v -1.476581 0.409366 0.620836
v -1.472061 0.421325 0.625356
v -1.465978 0.431807 0.631439
v -1.458566 0.440409 0.638851
v -1.450110 0.446802 0.647307
v -1.440934 0.450738 0.656483
v 1.105000 0.172862 0.896875
v 1.105000 0.662189 0.896875
v -0.475802 0.172862 0.435412
v -0.475802 0.839745 0.435412
v -0.895000 0.662189 -1.103125
v -0.895000 0.172862 -1.103125
v -0.580771 0.817385 0.538568
v 1.000031 0.639829 1.000032
v -0.999969 0.639829 -0.999968
v 1.105031 0.639829 0.896907
v -0.475771 0.817385 0.435443
v -0.894969 0.639829 -1.103093
vt 0.375000 0.750000
vt 0.625000 0.750000
vt 0.625000 1.000000
vt 0.375000 1.000000
vt 0.375000 0.000000
vt 0.625000 0.000000
vt 0.625000 0.250000
vt 0.375000 0.250000
vt 0.125000 0.500000
vt 0.375000 0.500000
vt 0.125000 0.750000
vt 0.375000 0.750000
vt 0.375000 0.500000
vt 0.375000 0.500000
vt 0.375000 0.750000
vt 0.625000 0.750000
vt 0.625000 0.750000
vt 0.625000 0.500000
vt 0.375000 0.250000
vt 0.625000 0.250000
vt 0.625000 0.500000
vt 0.375000 0.250000
vt 0.625000 0.250000
vt 0.125000 0.500000
vt 0.125000 0.500000
vt 0.875000 0.500000
vt 0.875000 0.500000
vt 1.000000 0.500000
vt 1.000000 1.000000
vt 0.968750 1.000000
vt 0.968750 0.500000
vt 0.937500 1.000000
vt 0.937500 0.500000
vt 0.906250 1.000000
vt 0.906250 0.500000
vt 0.875000 1.000000
vt 0.875000 0.500000
vt 0.843750 1.000000
vt 0.843750 0.500000
vt 0.812500 1.000000
vt 0.812500 0.500000
vt 0.781250 1.000000
vt 0.781250 0.500000
vt 0.750000 1.000000
vt 0.750000 0.500000
vt 0.718750 1.000000
vt 0.718750 0.500000
vt 0.687500 1.000000
vt 0.687500 0.500000
vt 0.656250 1.000000
vt 0.656250 0.500000
vt 0.625000 1.000000
vt 0.625000 0.500000
vt 0.593750 1.000000
vt 0.593750 0.500000
vt 0.562500 1.000000
vt 0.562500 0.500000
vt 0.531250 1.000000
vt 0.531250 0.500000
vt 0.500000 1.000000
vt 0.500000 0.500000
vt 0.468750 1.000000
vt 0.468750 0.500000
vt 0.437500 1.000000
vt 0.437500 0.500000
vt 0.406250 1.000000
vt 0.406250 0.500000
vt 0.375000 1.000000
vt 0.375000 0.500000
vt 0.343750 1.000000
vt 0.343750 0.500000
vt 0.312500 1.000000
vt 0.312500 0.500000
vt 0.281250 1.000000
vt 0.281250 0.500000
vt 0.250000 1.000000
vt 0.250000 0.500000
vt 0.218750 1.000000
vt 0.218750 0.500000
vt 0.187500 1.000000
vt 0.187500 0.500000
vt 0.156250 1.000000
vt 0.156250 0.500000
vt 0.125000 1.000000
vt 0.125000 0.500000
vt 0.093750 1.000000
vt 0.093750 0.500000
vt 0.062500 1.000000
vt 0.062500 0.500000
vt 0.750000 1.000000
vt 0.718750 1.000000
vt 0.031250 1.000000
vt 0.031250 0.500000
vt 0.000000 1.000000
vt 0.000000 0.500000
vt 0.750000 0.490000
vt 0.796822 0.485388
vt 0.841844 0.471731
vt 0.883337 0.449553
vt 0.919706 0.419706
vt 0.949553 0.383337
vt 0.971731 0.341844
vt 0.985388 0.296822
vt 0.990000 0.250000
vt 0.985388 0.203178
vt 0.971731 0.158156
vt 0.949553 0.116663
vt 0.919706 0.080294
vt 0.883337 0.050447
vt 0.841844 0.028269
vt 0.796822 0.014612
vt 0.750000 0.010000
vt 0.703178 0.014612
vt 0.658156 0.028269
vt 0.616663 0.050447
vt 0.580294 0.080294
vt 0.550447 0.116663
vt 0.528269 0.158156
vt 0.514612 0.203178
vt 0.510000 0.250000
vt 0.514612 0.296822
vt 0.528269 0.341844
vt 0.550447 0.383337
vt 0.580294 0.419706
vt 0.616663 0.449553
vt 0.658156 0.471731
vt 0.703178 0.485388
vt 0.296822 0.485388
vt 0.250000 0.490000
vt 0.203178 0.485388
vt 0.158156 0.471731
vt 0.116663 0.449553
vt 0.080294 0.419706
vt 0.050447 0.383337
vt 0.028269 0.341844
vt 0.014612 0.296822
vt 0.010000 0.250000
vt 0.014612 0.203178
vt 0.028269 0.158156
vt 0.050447 0.116663
vt 0.080294 0.080294
vt 0.116663 0.050447
vt 0.158156 0.028269
vt 0.203178 0.014612
vt 0.250000 0.010000
vt 0.296822 0.014612
vt 0.341844 0.028269
vt 0.383337 0.050447
vt 0.419706 0.080294
vt 0.449553 0.116663
vt 0.471731 0.158156
vt 0.485388 0.203178
vt 0.490000 0.250000
vt 0.485388 0.296822
vt 0.471731 0.341844
vt 0.449553 0.383337
vt 0.419706 0.419706
vt 0.383337 0.449553
vt 0.341844 0.471731
vt 0.468750 1.000000
vt 0.437500 1.000000
vt 0.187500 1.000000
vt 0.156250 1.000000
vt 0.875000 1.000000
vt 0.843750 1.000000
vt 0.593750 1.000000
vt 0.562500 1.000000
vt 1.000000 1.000000
vt 0.968750 1.000000
vt 0.312500 1.000000
vt 0.281250 1.000000
vt 0.031250 1.000000
vt 0.000000 1.000000
vt 0.687500 1.000000
vt 0.406250 1.000000
vt 0.125000 1.000000
vt 0.812500 1.000000
vt 0.531250 1.000000
vt 0.250000 1.000000
vt 0.937500 1.000000
vt 0.656250 1.000000
vt 0.375000 1.000000
vt 0.093750 1.000000
vt 0.781250 1.000000
vt 0.500000 1.000000
vt 0.218750 1.000000
vt 0.906250 1.000000
vt 0.625000 1.000000
vt 0.343750 1.000000
vt 0.062500 1.000000
vt 1.000000 0.500000
vt 1.000000 1.000000
vt 0.968750 1.000000
vt 0.968750 0.500000
vt 0.937500 1.000000
vt 0.937500 0.500000
vt 0.906250 1.000000
vt 0.906250 0.500000
vt 0.875000 1.000000
vt 0.875000 0.500000
vt 0.843750 1.000000
vt 0.843750 0.500000
vt 0.812500 1.000000
vt 0.812500 0.500000
vt 0.781250 1.000000
vt 0.781250 0.500000
vt 0.750000 1.000000
vt 0.750000 0.500000
vt 0.718750 1.000000
vt 0.718750 0.500000
vt 0.687500 1.000000
vt 0.687500 0.500000
vt 0.656250 1.000000
vt 0.656250 0.500000
vt 0.625000 1.000000
vt 0.625000 0.500000
vt 0.593750 1.000000
vt 0.593750 0.500000
vt 0.562500 1.000000
vt 0.562500 0.500000
vt 0.531250 1.000000
vt 0.531250 0.500000
vt 0.500000 1.000000
vt 0.500000 0.500000
vt 0.468750 1.000000
vt 0.468750 0.500000
vt 0.437500 1.000000
vt 0.437500 0.500000
vt 0.406250 1.000000
vt 0.406250 0.500000
vt 0.375000 1.000000
vt 0.375000 0.500000
vt 0.343750 1.000000
vt 0.343750 0.500000
vt 0.312500 1.000000
vt 0.312500 0.500000
vt 0.281250 1.000000
vt 0.281250 0.500000
vt 0.250000 1.000000
vt 0.250000 0.500000
vt 0.218750 1.000000
vt 0.218750 0.500000
vt 0.187500 1.000000
vt 0.187500 0.500000
vt 0.156250 1.000000
vt 0.156250 0.500000
vt 0.125000 1.000000
vt 0.125000 0.500000
vt 0.093750 1.000000
vt 0.093750 0.500000
vt 0.062500 1.000000
vt 0.062500 0.500000
vt 0.750000 1.000000
vt 0.718750 1.000000
vt 0.031250 1.000000
vt 0.031250 0.500000
vt 0.000000 1.000000
vt 0.000000 0.500000
vt 0.750000 0.490000
vt 0.796822 0.485388
vt 0.841844 0.471731
vt 0.883337 0.449553
vt 0.919706 0.419706
vt 0.949553 0.383337
vt 0.971731 0.341844
vt 0.985388 0.296822
vt 0.990000 0.250000
vt 0.985388 0.203178
vt 0.971731 0.158156
vt 0.949553 0.116663
vt 0.919706 0.080294
vt 0.883337 0.050447
vt 0.841844 0.028269
vt 0.796822 0.014612
vt 0.750000 0.010000
vt 0.703178 0.014612
vt 0.658156 0.028269
vt 0.616663 0.050447
vt 0.580294 0.080294
vt 0.550447 0.116663
vt 0.528269 0.158156
vt 0.514612 0.203178
vt 0.510000 0.250000
vt 0.514612 0.296822
vt 0.528269 0.341844
vt 0.550447 0.383337
vt 0.580294 0.419706
vt 0.616663 0.449553
vt 0.658156 0.471731
vt 0.703178 0.485388
vt 0.296822 0.485388
vt 0.250000 0.490000
vt 0.203178 0.485388
vt 0.158156 0.471731
vt 0.116663 0.449553
vt 0.080294 0.419706
vt 0.050447 0.383337
vt 0.028269 0.341844
vt 0.014612 0.296822
vt 0.010000 0.250000
vt 0.014612 0.203178
vt 0.028269 0.158156
vt 0.050447 0.116663
vt 0.080294 0.080294
vt 0.116663 0.050447
vt 0.158156 0.028269
vt 0.203178 0.014612
vt 0.250000 0.010000
vt 0.296822 0.014612
vt 0.341844 0.028269
vt 0.383337 0.050447
vt 0.419706 0.080294
vt 0.449553 0.116663
vt 0.471731 0.158156
vt 0.485388 0.203178
vt 0.490000 0.250000
vt 0.485388 0.296822
vt 0.471731 0.341844
vt 0.449553 0.383337
vt 0.419706 0.419706
vt 0.383337 0.449553
vt 0.341844 0.471731
vt 0.468750 1.000000
vt 0.437500 1.000000
vt 0.187500 1.000000
vt 0.156250 1.000000
vt 0.875000 1.000000
vt 0.843750 1.000000
vt 0.593750 1.000000
vt 0.562500 1.000000
vt 1.000000 1.000000
vt 0.968750 1.000000
vt 0.312500 1.000000
vt 0.281250 1.000000
vt 0.031250 1.000000
vt 0.000000 1.000000
vt 0.687500 1.000000
vt 0.406250 1.000000
vt 0.125000 1.000000
vt 0.812500 1.000000
vt 0.531250 1.000000
vt 0.250000 1.000000
vt 0.937500 1.000000
vt 0.656250 1.000000
vt 0.375000 1.000000
vt 0.093750 1.000000
vt 0.781250 1.000000
vt 0.500000 1.000000
vt 0.218750 1.000000
vt 0.906250 1.000000
vt 0.625000 1.000000
vt 0.343750 1.000000
vt 0.062500 1.000000
vt 0.875000 0.500000
vt 0.625000 0.500000
vt 0.625000 0.250000
vt 0.625000 0.250000
vt 0.625000 0.750000
vt 0.625000 0.750000
vt 0.625000 0.500000
vt 0.875000 0.500000
vt 0.875000 0.750000
vt 0.625000 0.500000
vt 0.875000 0.500000
vn 0.0000 0.0000 1.0000
vn -1.0000 0.0000 0.0000
vn 0.0000 -1.0000 0.0000
vn 0.7007 0.0000 0.7134
vn 0.2802 0.0000 -0.9599
vn 0.9648 0.0000 -0.2629
vn 0.0859 0.9925 0.0875
vn -0.7007 0.0000 -0.7134
vn -0.0887 0.9920 -0.0903
vn 0.0693 0.9952 0.0693
vn 0.2053 0.9569 0.2053
vn 0.3333 0.8819 0.3333
vn 0.4486 0.7730 0.4486
vn 0.5466 0.6344 0.5466
vn 0.6236 0.4714 0.6236
vn 0.6767 0.2903 0.6767
vn 0.7037 0.0980 0.7037
vn 0.7037 -0.0980 0.7037
vn 0.6767 -0.2903 0.6767
vn 0.6236 -0.4714 0.6236
vn 0.5466 -0.6344 0.5466
vn 0.4486 -0.7730 0.4486
vn 0.3333 -0.8819 0.3333
vn 0.2053 -0.9569 0.2053
vn 0.0693 -0.9952 0.0693
vn -0.0693 -0.9952 -0.0693
vn -0.2053 -0.9569 -0.2053
vn -0.3333 -0.8819 -0.3333
vn -0.4486 -0.7730 -0.4486
vn -0.5466 -0.6344 -0.5466
vn -0.6236 -0.4714 -0.6236
vn -0.6767 -0.2903 -0.6767
vn -0.7037 -0.0980 -0.7037
vn -0.7037 0.0980 -0.7037
vn -0.6767 0.2903 -0.6767
vn -0.6236 0.4714 -0.6236
vn -0.5466 0.6344 -0.5466
vn -0.4486 0.7730 -0.4486
vn -0.3333 0.8819 -0.3333
vn -0.2053 0.9569 -0.2053
vn -0.0693 0.9952 -0.0693
vn 0.7071 0.0000 -0.7071
vn -0.7071 -0.0000 0.7071
vn -0.9648 -0.0010 0.2630
vn 0.7007 0.0020 0.7134
vn -0.2801 0.0010 0.9600
vn -0.7007 -0.0020 -0.7134
vn -0.1939 0.9617 0.1939
vn 0.2801 -0.0010 -0.9600
vn 0.9648 0.0010 -0.2630
usemtl Material
s off
f 4/1/1 3/2/1 7/3/1 8/4/1
f 8/5/2 7/6/2 5/7/2 6/8/2
f 6/9/3 2/10/3 4/1/3 8/11/3
f 207/12/3 209/13/3 9/14/3 13/15/3
f 208/16/4 207/12/4 13/15/4 12/17/4
f 9/14/5 11/18/5 12/17/5 13/15/5
f 10/19/6 14/20/6 11/18/6 9/14/6
f 210/21/7 208/16/7 12/17/7 11/18/7
f 212/22/8 211/23/8 14/20/8 10/19/8
f 209/13/3 212/24/3 10/25/3 9/14/3
f 211/26/9 210/21/9 11/18/9 14/27/9
f 15/28/10 16/29/10 18/30/10 17/31/10
f 17/31/11 18/30/11 20/32/11 19/33/11
f 19/33/12 20/32/12 22/34/12 21/35/12
f 21/35/13 22/34/13 24/36/13 23/37/13
f 23/37/14 24/36/14 26/38/14 25/39/14
f 25/39/15 26/38/15 28/40/15 27/41/15
f 27/41/16 28/40/16 30/42/16 29/43/16
f 29/43/17 30/42/17 32/44/17 31/45/17
f 31/45/18 32/44/18 34/46/18 33/47/18
f 33/47/19 34/46/19 36/48/19 35/49/19
f 35/49/20 36/48/20 38/50/20 37/51/20
f 37/51/21 38/50/21 40/52/21 39/53/21
f 39/53/22 40/52/22 42/54/22 41/55/22
f 41/55/23 42/54/23 44/56/23 43/57/23
f 43/57/24 44/56/24 46/58/24 45/59/24
f 45/59/25 46/58/25 48/60/25 47/61/25
f 47/61/26 48/60/26 50/62/26 49/63/26
f 49/63/27 50/62/27 52/64/27 51/65/27
f 51/65/28 52/64/28 54/66/28 53/67/28
f 53/67/29 54/66/29 56/68/29 55/69/29
f 55/69/30 56/68/30 58/70/30 57/71/30
f 57/71/31 58/70/31 60/72/31 59/73/31
f 59/73/32 60/72/32 62/74/32 61/75/32
f 61/75/33 62/74/33 64/76/33 63/77/33
f 63/77/34 64/76/34 66/78/34 65/79/34
f 65/79/35 66/78/35 68/80/35 67/81/35
f 67/81/36 68/80/36 70/82/36 69/83/36
f 69/83/37 70/82/37 72/84/37 71/85/37
f 71/85/38 72/84/38 74/86/38 73/87/38
f 73/87/39 74/86/39 76/88/39 75/89/39
f 34/46/18 32/44/18 87/90/18 88/91/18
f 75/89/40 76/88/40 78/92/40 77/93/40
f 77/93/41 78/92/41 16/94/41 15/95/41
f 15/96/42 17/97/42 19/98/42 21/99/42 23/100/42 25/101/42 27/102/42 29/103/42 31/104/42 33/105/42 35/106/42 37/107/42 39/108/42 41/109/42 43/110/42 45/111/42 47/112/42 49/113/42 51/114/42 53/115/42 55/116/42 57/117/42 59/118/42 61/119/42 63/120/42 65/121/42 67/122/42 69/123/42 71/124/42 73/125/42 75/126/42 77/127/42
f 79/128/43 80/129/43 110/130/43 109/131/43 108/132/43 107/133/43 106/134/43 105/135/43 104/136/43 103/137/43 102/138/43 101/139/43 100/140/43 99/141/43 98/142/43 97/143/43 96/144/43 95/145/43 94/146/43 93/147/43 92/148/43 91/149/43 90/150/43 89/151/43 88/152/43 87/153/43 86/154/43 85/155/43 84/156/43 83/157/43 82/158/43 81/159/43
f 52/64/27 50/62/27 96/160/27 97/161/27
f 70/82/36 68/80/36 105/162/36 106/163/36
f 26/38/14 24/36/14 83/164/14 84/165/14
f 44/56/23 42/54/23 92/166/23 93/167/23
f 18/30/10 16/29/10 80/168/10 79/169/10
f 62/74/32 60/72/32 101/170/32 102/171/32
f 16/94/41 78/92/41 110/172/41 80/173/41
f 36/48/19 34/46/19 88/91/19 89/174/19
f 54/66/28 52/64/28 97/161/28 98/175/28
f 72/84/37 70/82/37 106/163/37 107/176/37
f 28/40/15 26/38/15 84/165/15 85/177/15
f 46/58/24 44/56/24 93/167/24 94/178/24
f 64/76/33 62/74/33 102/171/33 103/179/33
f 20/32/11 18/30/11 79/169/11 81/180/11
f 38/50/20 36/48/20 89/174/20 90/181/20
f 56/68/29 54/66/29 98/175/29 99/182/29
f 74/86/38 72/84/38 107/176/38 108/183/38
f 30/42/16 28/40/16 85/177/16 86/184/16
f 48/60/25 46/58/25 94/178/25 95/185/25
f 66/78/34 64/76/34 103/179/34 104/186/34
f 22/34/12 20/32/12 81/180/12 82/187/12
f 40/52/21 38/50/21 90/181/21 91/188/21
f 58/70/30 56/68/30 99/182/30 100/189/30
f 76/88/39 74/86/39 108/183/39 109/190/39
f 32/44/17 30/42/17 86/184/17 87/90/17
f 50/62/26 48/60/26 95/185/26 96/160/26
f 68/80/35 66/78/35 104/186/35 105/162/35
f 24/36/13 22/34/13 82/187/13 83/164/13
f 42/54/22 40/52/22 91/188/22 92/166/22
f 60/72/31 58/70/31 100/189/31 101/170/31
f 78/92/40 76/88/40 109/190/40 110/172/40
f 111/191/10 112/192/10 114/193/10 113/194/10
f 113/194/11 114/193/11 116/195/11 115/196/11
f 115/196/12 116/195/12 118/197/12 117/198/12
f 117/198/13 118/197/13 120/199/13 119/200/13
f 119/200/14 120/199/14 122/201/14 121/202/14
f 121/202/15 122/201/15 124/203/15 123/204/15
f 123/204/16 124/203/16 126/205/16 125/206/16
f 125/206/17 126/205/17 128/207/17 127/208/17
f 127/208/18 128/207/18 130/209/18 129/210/18
f 129/210/19 130/209/19 132/211/19 131/212/19
f 131/212/20 132/211/20 134/213/20 133/214/20
f 133/214/21 134/213/21 136/215/21 135/216/21
f 135/216/22 136/215/22 138/217/22 137/218/22
f 137/218/23 138/217/23 140/219/23 139/220/23
f 139/220/24 140/219/24 142/221/24 141/222/24
f 141/222/25 142/221/25 144/223/25 143/224/25
f 143/224/26 144/223/26 146/225/26 145/226/26
f 145/226/27 146/225/27 148/227/27 147/228/27
f 147/228/28 148/227/28 150/229/28 149/230/28
f 149/230/29 150/229/29 152/231/29 151/232/29
f 151/232/30 152/231/30 154/233/30 153/234/30
f 153/234/31 154/233/31 156/235/31 155/236/31
f 155/236/32 156/235/32 158/237/32 157/238/32
f 157/238/33 158/237/33 160/239/33 159/240/33
f 159/240/34 160/239/34 162/241/34 161/242/34
f 161/242/35 162/241/35 164/243/35 163/244/35
f 163/244/36 164/243/36 166/245/36 165/246/36
f 165/246/37 166/245/37 168/247/37 167/248/37
f 167/248/38 168/247/38 170/249/38 169/250/38
f 169/250/39 170/249/39 172/251/39 171/252/39
f 130/209/18 128/207/18 183/253/18 184/254/18
f 171/252/40 172/251/40 174/255/40 173/256/40
f 173/256/41 174/255/41 112/257/41 111/258/41
f 111/259/42 113/260/42 115/261/42 117/262/42 119/263/42 121/264/42 123/265/42 125/266/42 127/267/42 129/268/42 131/269/42 133/270/42 135/271/42 137/272/42 139/273/42 141/274/42 143/275/42 145/276/42 147/277/42 149/278/42 151/279/42 153/280/42 155/281/42 157/282/42 159/283/42 161/284/42 163/285/42 165/286/42 167/287/42 169/288/42 171/289/42 173/290/42
f 175/291/43 176/292/43 206/293/43 205/294/43 204/295/43 203/296/43 202/297/43 201/298/43 200/299/43 199/300/43 198/301/43 197/302/43 196/303/43 195/304/43 194/305/43 193/306/43 192/307/43 191/308/43 190/309/43 189/310/43 188/311/43 187/312/43 186/313/43 185/314/43 184/315/43 183/316/43 182/317/43 181/318/43 180/319/43 179/320/43 178/321/43 177/322/43
f 148/227/27 146/225/27 192/323/27 193/324/27
f 166/245/36 164/243/36 201/325/36 202/326/36
f 122/201/14 120/199/14 179/327/14 180/328/14
f 140/219/23 138/217/23 188/329/23 189/330/23
f 114/193/10 112/192/10 176/331/10 175/332/10
f 158/237/32 156/235/32 197/333/32 198/334/32
f 112/257/41 174/255/41 206/335/41 176/336/41
f 132/211/19 130/209/19 184/254/19 185/337/19
f 150/229/28 148/227/28 193/324/28 194/338/28
f 168/247/37 166/245/37 202/326/37 203/339/37
f 124/203/15 122/201/15 180/328/15 181/340/15
f 142/221/24 140/219/24 189/330/24 190/341/24
f 160/239/33 158/237/33 198/334/33 199/342/33
f 116/195/11 114/193/11 175/332/11 177/343/11
f 134/213/20 132/211/20 185/337/20 186/344/20
f 152/231/29 150/229/29 194/338/29 195/345/29
f 170/249/38 168/247/38 203/339/38 204/346/38
f 126/205/16 124/203/16 181/340/16 182/347/16
f 144/223/25 142/221/25 190/341/25 191/348/25
f 162/241/34 160/239/34 199/342/34 200/349/34
f 118/197/12 116/195/12 177/343/12 178/350/12
f 136/215/21 134/213/21 186/344/21 187/351/21
f 154/233/30 152/231/30 195/345/30 196/352/30
f 172/251/39 170/249/39 204/346/39 205/353/39
f 128/207/17 126/205/17 182/347/17 183/253/17
f 146/225/26 144/223/26 191/348/26 192/323/26
f 164/243/35 162/241/35 200/349/35 201/325/35
f 120/199/13 118/197/13 178/350/13 179/327/13
f 138/217/22 136/215/22 187/351/22 188/329/22
f 156/235/31 154/233/31 196/352/31 197/333/31
f 174/255/40 172/251/40 205/353/40 206/335/40
f 2/10/3 6/9/3 212/24/3 209/13/3
f 6/8/8 5/7/8 211/23/8 212/22/8
f 210/21/44 211/26/44 218/354/44 217/355/44
f 3/2/4 4/1/4 207/12/4 208/16/4
f 4/1/3 2/10/3 209/13/3 207/12/3
f 211/23/45 5/7/45 215/356/45 218/357/45
f 208/16/46 210/21/46 217/355/46 216/358/46
f 3/2/47 208/16/47 216/358/47 214/359/47
usemtl Material.001
f 1/360/48 5/361/48 7/362/48 3/2/48
f 1/360/49 3/2/49 214/359/49 213/363/49
f 5/361/50 1/360/50 213/363/50 215/364/50
usemtl Material.002
f 215/364/9 213/363/9 217/355/9 218/354/9
f 213/363/7 214/359/7 216/358/7 217/355/7
